<?xml version="1.0" encoding="UTF-8"?>
<!DOCTYPE svg PUBLIC "-//W3C//DTD SVG 1.1//EN" "http://www.w3.org/Graphics/SVG/1.1/DTD/svg11.dtd">
<!-- Creator: CorelDRAW 2018 (64-Bit) -->
<svg xmlns="http://www.w3.org/2000/svg" xml:space="preserve" width="210mm" height="297mm" version="1.1" style="shape-rendering:geometricPrecision; text-rendering:geometricPrecision; image-rendering:optimizeQuality; fill-rule:evenodd; clip-rule:evenodd"
viewBox="0 0 21000 29700"
 xmlns:xlink="http://www.w3.org/1999/xlink">
 <defs>
  <style type="text/css">
   <![CDATA[
    .str0 {stroke:#080808;stroke-width:50;stroke-miterlimit:22.9256}
    .fil2 {fill:none}
    .fil3 {fill:#080808}
    .fil1 {fill:#FF0808}
    .fil4 {fill:#030303;fill-rule:nonzero}
    .fil0 {fill:#080808;fill-rule:nonzero}
   ]]>
  </style>
 </defs>
 <g id="Слой_x0020_1">
  <metadata id="CorelCorpID_0Corel-Layer"/>
  <path class="fil0" d="M6811.39 15687.97l0 -1597.26 169.79 0 898.85 1239.83 0 -1239.83 193.76 0 0 1597.26 -173.46 0 -895.2 -1241.02 0 1241.02 -193.74 0zm3722.96 -378.86l0 257.66c-79.91,48.69 -161.45,85.73 -244.37,111.06 -82.87,25.33 -165.12,38.2 -246.33,38.2 -78.25,0 -152.83,-12.07 -223.71,-35.85 -70.93,-24.17 -137.83,-59.63 -201.09,-106.81 -101.2,-77.57 -180.09,-176.95 -236.39,-297.38 -56.26,-120.85 -84.55,-251.8 -84.55,-393.67 0,-107.2 18.65,-211.25 55.61,-312.21 36.95,-100.54 89.88,-189.04 158.13,-264.26 72.9,-80.68 154.49,-141.09 244.7,-180.84 90.55,-40.16 190.73,-60.05 300.61,-60.05 76.9,0 152.81,10.14 228.38,30.8 75.24,20.66 154.46,53.01 237.05,97.45l0 248.3c-86.57,-54.97 -167.8,-95.52 -244.07,-122.01 -75.87,-26.13 -149.79,-39.36 -221.36,-39.36 -159.46,0 -290.97,58.06 -395.18,174.21 -104.19,116.15 -156.12,261.55 -156.12,436.54 0,173.07 51.26,317.29 153.8,433.44 102.53,116.15 231.03,174.21 385.85,174.21 79.55,0 159.79,-15.58 241.02,-46.76 81.57,-31.19 164.13,-78.75 248.02,-142.67zm215.4 -1218.4l193.74 0 0 916.71c0,102.15 4.66,174.63 13.97,217.11 9.67,42.48 25.3,79.52 47.62,110.71 40.28,55.74 87.9,97.03 143.17,124.71 55.24,27.29 118.16,40.94 188.41,40.94 118.19,0 213.37,-35.86 285.63,-107.2 72.23,-71.71 108.2,-166.04 108.2,-283.35l0 -1019.63 193.77 0 0 1026.65c0,177.72 -54.28,321.93 -162.81,432.64 -108.52,110.68 -250.03,166.03 -424.79,166.03 -103.53,0 -196.75,-21.43 -279.98,-64.3 -83.22,-43.28 -153.13,-106.01 -210.4,-189.04 -35.3,-49.5 -59.93,-104.47 -74.57,-165.27 -14.64,-60.79 -21.96,-154.35 -21.96,-280.63l0 -926.08zm1653.88 893.34l0 495.79 259.65 0c94.91,0 164.16,-19.5 207.77,-58.86 43.92,-39.36 65.91,-100.57 65.91,-184.35 0,-86.93 -24.64,-150.84 -73.59,-191.39 -48.92,-40.91 -126.17,-61.19 -231.36,-61.19l-228.38 0zm-193.74 703.92l0 -1597.26 399.5 0c136.15,0 241,36.24 314.58,108.36 73.92,72.48 110.85,174.98 110.85,308.29 0,82.25 -16.63,150.84 -49.58,205.42 -33.28,54.94 -83.89,97.04 -152.14,126.67 99.19,27.68 176.12,77.57 230.36,149.66 54.28,72.51 81.24,160.21 81.24,263.87 0,132.53 -41.29,238.16 -124.19,316.88 -82.89,78.75 -195.09,118.11 -336.9,118.11l-473.72 0zm193.74 -912.05l131.84 0c99.52,0 173.44,-21.04 221.39,-62.75 48.26,-41.71 72.23,-105.63 72.23,-191.78 0,-78.34 -18.97,-135.63 -56.93,-171.09 -38.28,-35.88 -98.85,-53.81 -182.11,-53.81l-186.42 0 0 479.43zm1223.1 236.2l425.16 0 -215.4 -575.31 -209.76 575.31zm-449.77 675.85l591.28 -1597.26 142.17 0 598.89 1597.26 -201.75 0 -175.78 -470.07 -581.25 0 -173.46 470.07 -200.1 0zm1658.25 0l0 -1389.13 -501.36 0 0 -208.13 1196.5 0 0 208.13 -501.4 0 0 1389.13 -193.74 0zm988.43 -797.08c0,81.48 12.98,159.43 38.94,233.1 25.99,73.66 63.59,139.13 112.2,196.42 47.6,56.92 103.2,100.95 167.45,131.75 63.91,30.8 130.84,46.38 200.42,46.38 71.24,0 138.5,-15.19 201.42,-45.22 62.59,-29.99 118.86,-74.44 168.11,-132.91 48.61,-57.29 86.23,-122.76 112.53,-196.42 26.29,-73.67 39.64,-151.62 39.64,-233.1 0,-81.46 -13.01,-158.25 -38.98,-231.12 -25.96,-72.5 -64.58,-139.16 -115.18,-199.18 -48.62,-58.86 -104.55,-103.28 -167.81,-134.07 -62.92,-30.8 -129.49,-46.38 -199.73,-46.38 -67.92,0 -133.16,15.58 -196.75,46.76 -63.25,31.19 -120.51,75.6 -171.12,133.69 -48.61,55.36 -86.21,120.43 -112.2,195.29 -25.96,74.44 -38.94,152.78 -38.94,235.01zm-207.75 -8.57c0,-106.4 18.65,-210.09 55.6,-310.25 36.96,-100.57 89.89,-189.43 158.14,-266.22 69.58,-78.33 148.14,-137.97 236.06,-179.29 87.53,-40.93 180.09,-61.6 276.96,-61.6 98.56,0 192.41,20.67 281.33,62.37 88.53,41.33 166.75,100.96 234.37,178.52 70.88,80.69 124.16,170.74 160.13,269.35 35.6,98.99 53.58,206.55 53.58,322.32 0,108.74 -18.31,213.21 -55.27,313.37 -36.63,100.18 -88.89,188.27 -156.48,264.25 -70.88,79.14 -149.79,139.16 -237.35,179.71 -87.56,40.91 -181.09,61.18 -280.31,61.18 -96.87,0 -189.76,-21.04 -278.65,-62.75 -88.55,-42.1 -166.78,-101.35 -234.37,-178.14 -70.24,-79.88 -123.5,-170.31 -159.46,-270.47 -36.3,-100.57 -54.28,-208.16 -54.28,-322.35zm1671.57 805.65l0 -1597.26 399.49 0c137.84,0 244.35,38.2 319.26,114.19 74.91,76.01 112.22,183.99 112.22,323.12 0,105.24 -20.66,189.81 -61.62,253.73 -41.27,63.92 -105.85,111.87 -194.74,143.83 22.96,14.42 44.28,33.53 64.58,57.7 20.31,23.76 46.27,63.92 78.23,120.43l331.24 584.26 -236.03 0 -234.01 -419c-70.27,-126.28 -126.87,-206.97 -170.12,-241.66 -42.96,-35.08 -94.58,-52.62 -154.13,-52.62l-58.62 0 0 713.28 -195.75 0zm195.75 -905.03l161.81 0c90.88,0 158.8,-20.66 204.07,-61.6 44.94,-41.32 67.57,-104.05 67.57,-188.65 0,-86.9 -21.3,-149.66 -64.25,-189.02 -42.93,-39.36 -112.18,-58.86 -207.39,-58.86l-161.81 0 0 498.13z"/>
  <path class="fil1" d="M6489.94 13501.45c116.23,0 210.48,94.25 210.48,210.48 0,116.23 -94.25,210.48 -210.48,210.48 -116.23,0 -210.48,-94.25 -210.48,-210.48 0,-116.23 94.25,-210.48 210.48,-210.48z"/>
  <path class="fil2 str0" d="M7214.26 13049.03c983.64,0 1781.06,797.42 1781.06,1781.06 0,983.61 -797.42,1781.03 -1781.06,1781.03 -983.65,0 -1781.03,-797.42 -1781.03,-1781.03 0,-983.64 797.38,-1781.06 1781.03,-1781.06z"/>
  <polygon class="fil3" points="6393.46,14090.97 6586.38,14090.97 6586.38,15686.98 6393.46,15686.98 "/>
  <path class="fil0" d="M2663.89 15689.3l0 -1593.95 233.01 0 0 1593.95 -233.01 0zm1027.2 0l0 -1386.24 -596.86 0 0 -207.71 1424.33 0 0 207.71 -596.83 0 0 1386.24 -230.64 0z"/>
  <path class="fil3" d="M4806.18 14738.28c116.26,0 210.48,94.21 210.48,210.47 0,116.26 -94.22,210.48 -210.48,210.48 -116.26,0 -210.48,-94.22 -210.48,-210.48 0,-116.26 94.22,-210.47 210.48,-210.47z"/>
  <polygon class="fil4" points="9619.72,16502.49 9619.72,16115.17 9671.11,16115.17 9671.11,16502.49 "/>
  <polygon id="1" class="fil4" points="10085.25,16502.49 10085.25,16160.61 9957.58,16160.61 9957.58,16115.17 10264.3,16115.17 10264.3,16160.61 10136.64,16160.61 10136.64,16502.49 "/>
  <polygon id="2" class="fil4" points="10487.94,16386.19 10487.94,16338.58 10635.08,16338.58 10635.08,16386.19 "/>
  <polygon id="3" class="fil4" points="10916.24,16502.49 10916.24,16115.17 10967.63,16115.17 10967.63,16307.21 11160.03,16115.17 11229.45,16115.17 11066.98,16272.23 11236.48,16502.49 11168.86,16502.49 11031.01,16307.03 10967.63,16368.33 10967.63,16502.49 "/>
  <path id="4" class="fil4" d="M11462.19 16502.49l148.58 -387.32 56.35 0 157.69 387.32 -58.34 0 -44.81 -117.39 -163.09 0 -42.02 117.39 -54.36 0zm111.43 -159.04l132 0 -40.39 -107.38c-12.18,-32.64 -21.37,-59.59 -27.77,-80.87 -5.32,25.24 -12.45,50.04 -21.37,74.56l-42.47 113.69z"/>
  <path id="5" class="fil4" d="M12089.82 16502.49l0 -387.32 76.82 0 91.6 274.17c8.47,25.52 14.6,44.63 18.48,57.34 4.42,-14.06 11.36,-34.8 20.74,-62.12l93.22 -269.39 68.61 0 0 387.32 -49.23 0 0 -324.03 -113.05 324.03 -46.17 0 -111.79 -329.98 0 329.98 -49.23 0z"/>
  <path id="6" class="fil4" d="M12724.49 16502.49l148.58 -387.32 56.35 0 157.69 387.32 -58.34 0 -44.81 -117.39 -163.09 0 -42.02 117.39 -54.36 0zm111.43 -159.04l132 0 -40.39 -107.38c-12.18,-32.64 -21.37,-59.59 -27.77,-80.87 -5.32,25.24 -12.45,50.04 -21.37,74.56l-42.47 113.69z"/>
  <path id="7" class="fil4" d="M13336.43 16378.07l48.15 -4.33c2.25,19.48 7.57,35.44 15.96,47.97 8.38,12.44 21.36,22.54 38.94,30.29 17.59,7.66 37.42,11.54 59.42,11.54 19.56,0 36.78,-2.88 51.75,-8.74 14.97,-5.86 26.06,-13.89 33.36,-24.08 7.3,-10.18 11,-21.27 11,-33.17 0,-12.09 -3.52,-22.63 -10.55,-31.74 -7.03,-9.02 -18.66,-16.59 -34.89,-22.81 -10.37,-3.97 -33.36,-10.28 -68.97,-18.84 -35.62,-8.57 -60.5,-16.59 -74.74,-24.17 -18.49,-9.73 -32.19,-21.81 -41.21,-36.15 -9.1,-14.33 -13.61,-30.47 -13.61,-48.23 0,-19.66 5.59,-37.96 16.68,-54.91 11.09,-17.04 27.23,-29.93 48.59,-38.77 21.28,-8.83 44.99,-13.25 71.05,-13.25 28.67,0 54,4.6 75.91,13.88 21.91,9.2 38.77,22.81 50.58,40.84 11.81,17.95 18.12,38.32 19.02,61.04l-49.22 3.79c-2.62,-24.43 -11.54,-42.92 -26.78,-55.36 -15.24,-12.53 -37.78,-18.75 -67.53,-18.75 -31.01,0 -53.64,5.68 -67.8,17.04 -14.15,11.36 -21.27,25.06 -21.27,41.11 0,13.88 5.04,25.33 15.05,34.35 9.92,8.93 35.61,18.21 77.27,27.59 41.65,9.47 70.23,17.67 85.74,24.7 22.45,10.37 39.13,23.44 49.86,39.4 10.72,15.87 16.04,34.17 16.04,54.91 0,20.64 -5.86,39.94 -17.67,58.15 -11.81,18.21 -28.67,32.37 -50.76,42.46 -22.08,10.1 -46.88,15.15 -74.56,15.15 -34.98,0 -64.28,-5.14 -87.9,-15.33 -23.71,-10.18 -42.2,-25.51 -55.63,-46.07 -13.52,-20.46 -20.56,-43.63 -21.28,-69.51z"/>
  <path id="8" class="fil4" d="M14193.16 16115.17l51.39 0 0 223.68c0,38.95 -4.42,69.88 -13.16,92.78 -8.84,22.81 -24.71,41.47 -47.61,55.8 -22.99,14.34 -53.01,21.55 -90.34,21.55 -36.15,0 -65.81,-6.22 -88.8,-18.75 -23.08,-12.53 -39.49,-30.57 -49.32,-54.28 -9.83,-23.71 -14.78,-56.08 -14.78,-97.1l0 -223.68 51.39 0 0 223.59c0,33.63 3.15,58.52 9.37,74.38 6.22,15.96 16.86,28.31 32.1,36.88 15.14,8.65 33.72,12.98 55.63,12.98 37.5,0 64.28,-8.56 80.24,-25.6 15.95,-17.13 23.89,-49.95 23.89,-98.64l0 -223.59z"/>
  <polygon id="9" class="fil4" points="14654.01,16502.49 14654.01,16160.61 14526.34,16160.61 14526.34,16115.17 14833.06,16115.17 14833.06,16160.61 14705.4,16160.61 14705.4,16502.49 "/>
  <path id="10" class="fil4" d="M15112.51 16502.49l0 -387.32 171.66 0c34.53,0 60.76,3.52 78.7,10.46 17.95,6.94 32.28,19.2 43.01,36.78 10.73,17.58 16.05,37.06 16.05,58.34 0,27.49 -8.93,50.66 -26.69,69.51 -17.76,18.84 -45.17,30.74 -82.31,35.88 13.61,6.49 23.89,12.98 30.92,19.29 14.97,13.71 29.12,30.93 42.38,51.57l66.98 105.49 -64.01 0 -51.21 -80.6c-14.88,-23.35 -27.23,-41.11 -36.87,-53.47 -9.74,-12.35 -18.4,-20.91 -26.06,-25.87 -7.57,-4.87 -15.42,-8.3 -23.35,-10.28 -5.77,-1.17 -15.24,-1.8 -28.49,-1.8l-59.32 0 0 172.02 -51.39 0zm51.39 -216.38l109.99 0c23.44,0 41.65,-2.43 54.81,-7.3 13.17,-4.78 23.18,-12.53 29.94,-23.26 6.85,-10.64 10.28,-22.18 10.28,-34.71 0,-18.31 -6.59,-33.45 -19.84,-45.26 -13.25,-11.81 -34.17,-17.68 -62.75,-17.68l-122.43 0 0 128.21z"/>
  <path id="11" class="fil4" d="M15685.06 16502.49l148.58 -387.32 56.35 0 157.69 387.32 -58.34 0 -44.81 -117.39 -163.09 0 -42.02 117.39 -54.36 0zm111.43 -159.04l132 0 -40.39 -107.38c-12.18,-32.64 -21.37,-59.59 -27.77,-80.87 -5.32,25.24 -12.45,50.04 -21.37,74.56l-42.47 113.69z"/>
  <polygon id="12" class="fil4" points="16321.35,16502.49 16321.35,16448.4 16375.44,16448.4 16375.44,16502.49 "/>
  <path id="13" class="fil4" d="M16965.39 16366.62l51.39 12.98c-10.73,42.11 -30.02,74.11 -57.88,96.2 -27.86,22.09 -61.94,33.18 -102.24,33.18 -41.66,0 -75.56,-8.47 -101.7,-25.51 -26.15,-16.95 -45.98,-41.57 -59.6,-73.75 -13.61,-32.28 -20.46,-66.81 -20.46,-103.78 0,-40.3 7.66,-75.46 23.08,-105.48 15.42,-30.02 37.32,-52.83 65.72,-68.43 28.4,-15.6 59.69,-23.35 93.77,-23.35 38.77,0 71.31,9.83 97.64,29.57 26.42,19.75 44.81,47.42 55.18,83.13l-50.31 11.9c-8.93,-28.13 -22,-48.69 -39.04,-61.49 -17.04,-12.89 -38.5,-19.29 -64.37,-19.29 -29.67,0 -54.55,7.12 -74.47,21.36 -19.93,14.25 -33.99,33.45 -42.02,57.43 -8.11,24.08 -12.17,48.87 -12.17,74.38 0,32.91 4.78,61.67 14.34,86.2 9.55,24.61 24.43,42.91 44.62,55.08 20.2,12.17 42.02,18.21 65.55,18.21 28.67,0 52.83,-8.29 72.67,-24.79 19.83,-16.59 33.27,-41.11 40.3,-73.75z"/>
  <path id="14" class="fil4" d="M17289.92 16313.97c0,-64.19 17.31,-114.5 51.84,-150.84 34.53,-36.33 79.07,-54.45 133.7,-54.45 35.79,0 67.98,8.56 96.74,25.6 28.67,17.04 50.58,40.85 65.64,71.41 15.05,30.47 22.63,65.09 22.63,103.77 0,39.22 -7.94,74.38 -23.81,105.31 -15.86,31.01 -38.31,54.45 -67.34,70.32 -29.12,15.96 -60.5,23.89 -94.13,23.89 -36.51,0 -69.06,-8.83 -97.82,-26.41 -28.67,-17.59 -50.49,-41.57 -65.28,-72.04 -14.78,-30.38 -22.17,-62.57 -22.17,-96.56zm53.01 0.9c0,46.61 12.53,83.31 37.59,110.08 25.07,26.78 56.53,40.21 94.4,40.21 38.59,0 70.23,-13.52 95.21,-40.57 24.88,-27.04 37.32,-65.45 37.32,-115.22 0,-31.46 -5.32,-58.96 -15.95,-82.4 -10.64,-23.45 -26.24,-41.66 -46.71,-54.55 -20.55,-12.89 -43.54,-19.38 -69.06,-19.38 -36.24,0 -67.44,12.44 -93.58,37.32 -26.15,24.89 -39.22,66.36 -39.22,124.51z"/>
  <path id="15" class="fil4" d="M17950.73 16502.49l0 -387.32 76.82 0 91.6 274.17c8.47,25.52 14.6,44.63 18.48,57.34 4.42,-14.06 11.36,-34.8 20.74,-62.12l93.22 -269.39 68.61 0 0 387.32 -49.23 0 0 -324.03 -113.05 324.03 -46.17 0 -111.79 -329.98 0 329.98 -49.23 0z"/>
 </g>
</svg>
